<svg width="118" height="117" viewBox="0 0 118 117" fill="none" xmlns="http://www.w3.org/2000/svg">
<g id="icon.svg">
<g id="Mask group">
<mask id="mask0_3_1587" style="mask-type:luminance" maskUnits="userSpaceOnUse" x="11" y="10" width="96" height="97">
<g id="Group">
<path id="Vector" fill-rule="evenodd" clip-rule="evenodd" d="M92.9146 12.5542C88.1985 10.9687 85.1242 10.9688 74.1693 10.9688H43.8301C32.8753 10.9688 29.8015 10.9687 25.0854 12.5542C19.5094 14.5922 15.0922 19.0094 13.0542 24.5849C11.4687 29.3015 11.4688 32.3753 11.4688 43.3301V73.6693C11.4688 84.6242 11.4687 87.6985 13.0542 92.4146C15.0922 97.99 19.5094 102.408 25.0854 104.445C29.8015 106.031 32.8753 106.031 43.8301 106.031H74.1693C85.1242 106.031 88.1985 106.031 92.9146 104.445C98.49 102.408 102.908 97.99 104.945 92.4146C106.531 87.6985 106.531 84.6242 106.531 73.6693V43.3301C106.531 32.3753 106.531 29.3015 104.945 24.5849C102.908 19.0094 98.49 14.5922 92.9146 12.5542Z" fill="white"/>
</g>
</mask>
<g mask="url(#mask0_3_1587)">
<g id="Group_2">
<path id="Vector_2" d="M106.531 10.9688H11.4688V106.031H106.531V10.9688Z" fill="#23222F"/>
<g id="Group_3" style="mix-blend-mode:luminosity">
<path id="Vector_3" d="M84.5938 14.625H33.4062C23.3098 14.625 15.125 22.8098 15.125 32.9062V84.0938C15.125 94.1902 23.3098 102.375 33.4062 102.375H84.5938C94.6902 102.375 102.875 94.1902 102.875 84.0938V32.9062C102.875 22.8098 94.6902 14.625 84.5938 14.625Z" fill="url(#paint0_radial_3_1587)"/>
</g>
<g id="Group_4" opacity="0.7" filter="url(#filter0_f_3_1587)">
<path id="Vector_4" d="M59 146.848C84.2411 146.848 104.703 127.173 104.703 102.902C104.703 78.632 84.2411 58.957 59 58.957C33.7589 58.957 13.2969 78.632 13.2969 102.902C13.2969 127.173 33.7589 146.848 59 146.848Z" fill="#4FAAFF"/>
</g>
<g id="Group_5" style="mix-blend-mode:overlay" opacity="0.7" filter="url(#filter1_f_3_1587)">
<path id="Vector_5" d="M54.8867 109.002C66.4345 109.002 75.7959 105.319 75.7959 100.775C75.7959 96.232 66.4345 92.5488 54.8867 92.5488C43.3389 92.5488 33.9775 96.232 33.9775 100.775C33.9775 105.319 43.3389 109.002 54.8867 109.002Z" fill="white"/>
</g>
<g id="Group_6" style="mix-blend-mode:luminosity" opacity="0.6" filter="url(#filter2_f_3_1587)">
<path id="Vector_6" d="M59 25.708C76.9212 25.708 91.4492 19.109 91.4492 10.9688C91.4492 2.82848 76.9212 -3.77051 59 -3.77051C41.0788 -3.77051 26.5508 2.82848 26.5508 10.9688C26.5508 19.109 41.0788 25.708 59 25.708Z" fill="#B3B3B3" fill-opacity="0.5"/>
</g>
<g id="Group_7" style="mix-blend-mode:luminosity" opacity="0.2" filter="url(#filter3_f_3_1587)">
<path id="Vector_7" d="M59 39.0762C93.2017 39.0762 120.928 26.4921 120.928 10.9688C120.928 -4.55455 93.2017 -17.1387 59 -17.1387C24.7983 -17.1387 -2.92773 -4.55455 -2.92773 10.9688C-2.92773 26.4921 24.7983 39.0762 59 39.0762Z" fill="#B3B3B3" fill-opacity="0.5"/>
</g>
<g id="Group_8" style="mix-blend-mode:color-burn" opacity="0.2">
<path id="Vector_8" d="M84.5938 14.625H33.4062C23.3098 14.625 15.125 22.8098 15.125 32.9062V84.0938C15.125 94.1902 23.3098 102.375 33.4062 102.375H84.5938C94.6902 102.375 102.875 94.1902 102.875 84.0938V32.9062C102.875 22.8098 94.6902 14.625 84.5938 14.625Z" fill="#4FAAFF"/>
</g>
<g id="Group_9" opacity="0.8" filter="url(#filter4_f_3_1587)">
<path id="Vector_9" fill-rule="evenodd" clip-rule="evenodd" d="M83.4062 37.892C83.9902 37.5062 84.7643 37.952 84.7237 38.6509L81.1459 100.145C81.1001 100.932 80.0997 101.239 79.621 100.611L61.9452 77.4531C61.8082 77.2737 61.6055 77.1562 61.3818 77.1262L32.5436 73.2716C31.7644 73.1675 31.5316 72.1525 32.1876 71.7192L83.4062 37.892Z" fill="black"/>
</g>
<g id="Group_10" opacity="0.3" filter="url(#filter5_f_3_1587)">
<path id="Vector_10" fill-rule="evenodd" clip-rule="evenodd" d="M72.7416 46.5037C73.3258 46.1173 74.1003 46.5631 74.0596 47.2623L71.108 98.072C71.0622 98.8599 70.0611 99.1658 69.5827 98.5381L55.0766 79.5039C54.9397 79.3243 54.737 79.2065 54.5131 79.1765L30.8397 76.0075C30.0609 75.9033 29.828 74.8889 30.4834 74.4554L72.7416 46.5037Z" fill="black"/>
</g>
<g id="Group_11" filter="url(#filter6_i_3_1587)">
<path id="Vector_11" fill-rule="evenodd" clip-rule="evenodd" d="M78.3032 27.9734C78.8873 27.5871 79.6619 27.9266 79.6212 28.6257L77.9525 58.8641L76.2422 89.0063C76.1672 92.3631 73.3314 94.6006 70.9503 91.4787C65.819 84.7511 58.2677 73.3117 54.383 70.8552C50.4982 68.3987 37.2162 67.2038 28.7892 66.4563C26.504 66.2536 25.7042 62.6858 27.9034 61.2605L78.3032 27.9734Z" fill="#4FAAFF"/>
</g>
<g id="Vector_12" style="mix-blend-mode:soft-light">
<path d="M78.3505 28.0452C78.6179 27.8682 78.9259 27.8593 79.1598 27.9703C79.3917 28.0801 79.5539 28.3082 79.5358 28.621V28.6212L77.8669 58.8595L76.1566 89.0018V89.0031L76.1565 89.0046C76.1195 90.6635 75.4003 92.0289 74.4181 92.5981C73.929 92.8815 73.3732 92.9693 72.7952 92.7996C72.2157 92.6293 71.6062 92.1976 71.0184 91.427C69.7363 89.7462 68.303 87.7706 66.8126 85.7135L66.6506 85.4899C65.2106 83.5022 63.721 81.4462 62.2677 79.514C60.7598 77.5095 59.2899 75.6371 57.9533 74.1117C56.6184 72.5881 55.4112 71.4043 54.4286 70.783C53.445 70.161 51.8749 69.6232 49.9503 69.1537C48.0235 68.6835 45.7326 68.2801 43.3015 67.9302C38.4394 67.2306 33.0099 66.7449 28.7967 66.3712C27.7033 66.2742 26.9546 65.371 26.7488 64.3009C26.5433 63.2329 26.8851 62.0228 27.9499 61.3327L27.9505 61.3323L78.3505 28.0452Z" stroke="#130D20" stroke-opacity="0.6" stroke-width="0.171387"/>
</g>
<path id="Vector_13" style="mix-blend-mode:multiply" fill-rule="evenodd" clip-rule="evenodd" d="M78.3032 27.9734C78.8873 27.5871 79.6619 27.9266 79.6212 28.6257L77.9525 58.8641L76.2422 89.0063C76.1672 92.3631 73.3314 94.6006 70.9503 91.4787C65.819 84.7511 58.2677 73.3117 54.383 70.8552C50.4982 68.3987 37.2162 67.2038 28.7892 66.4563C26.504 66.2536 25.7042 62.6858 27.9034 61.2605L78.3032 27.9734Z" fill="url(#paint1_linear_3_1587)" fill-opacity="0.75"/>
<g id="Mask group_2">
<mask id="mask1_3_1587" style="mask-type:luminance" maskUnits="userSpaceOnUse" x="26" y="27" width="54" height="66">
<g id="Group_12">
<path id="Vector_14" fill-rule="evenodd" clip-rule="evenodd" d="M78.3032 27.9734C78.8873 27.5871 79.6619 27.9266 79.6212 28.6257L77.9525 58.8641L76.2422 89.0063C76.1672 92.3631 73.3314 94.6006 70.9503 91.4787C65.819 84.7511 58.2677 73.3117 54.383 70.8552C50.4982 68.3987 37.2162 67.2038 28.7892 66.4563C26.504 66.2536 25.7042 62.6858 27.9034 61.2605L78.3032 27.9734Z" fill="white"/>
</g>
</mask>
<g mask="url(#mask1_3_1587)">
<g id="Group_13">
<g id="Group_14" style="mix-blend-mode:overlay" opacity="0.3">
<path id="Vector_15" fill-rule="evenodd" clip-rule="evenodd" d="M78.3157 28.1302C78.8998 27.7437 79.6745 28.1896 79.6338 28.8887L76.1166 89.433C76.0216 91.0706 73.8773 91.6567 72.9586 90.2977C68.3593 83.4936 59.4808 70.7648 56.0027 68.5845C52.5284 66.4068 37.0903 65.1126 28.8762 64.5661C27.2358 64.457 26.6585 62.299 28.0296 61.392L78.3157 28.1302Z" fill="black"/>
</g>
<g id="Group_15" style="mix-blend-mode:overlay" filter="url(#filter7_f_3_1587)">
<path id="Vector_16" d="M78.481 100.433C81.3521 100.433 83.6797 98.1051 83.6797 95.2339C83.6797 92.3627 81.3521 90.0352 78.481 90.0352C75.6098 90.0352 73.2822 92.3627 73.2822 95.2339C73.2822 98.1051 75.6098 100.433 78.481 100.433Z" fill="white"/>
</g>
<g id="Group_16" style="mix-blend-mode:soft-light" opacity="0.9" filter="url(#filter8_f_3_1587)">
<path id="Vector_17" d="M70.4638 86.2337C70.867 85.9299 68.4585 82.0537 65.0842 77.5759C61.71 73.0981 58.6478 69.7145 58.2446 70.0183C57.8415 70.3221 60.25 74.1983 63.6242 78.6761C66.9985 83.1539 70.0607 86.5375 70.4638 86.2337Z" fill="white"/>
</g>
<g id="Group_17" style="mix-blend-mode:overlay" opacity="0.5" filter="url(#filter9_f_3_1587)">
<path id="Vector_18" d="M53.7523 66.8992C53.6668 67.549 48.3102 67.3796 41.788 66.5209C35.2658 65.6623 30.0478 64.4395 30.1334 63.7897C30.2189 63.14 35.5756 63.3094 42.0977 64.168C48.6199 65.0267 53.8379 66.2495 53.7523 66.8992Z" fill="white"/>
</g>
</g>
</g>
</g>
<g id="Mask group_3">
<mask id="mask2_3_1587" style="mask-type:alpha" maskUnits="userSpaceOnUse" x="27" y="27" width="53" height="64">
<g id="Group_18">
<path id="Vector_19" fill-rule="evenodd" clip-rule="evenodd" d="M78.4301 27.9016C79.0142 27.5152 79.7887 27.9611 79.7482 28.6602L76.231 89.2045C76.1358 90.842 73.9915 91.4282 73.073 90.0692C68.4736 83.265 59.5952 70.5362 56.1169 68.356C52.6427 66.1782 37.2045 64.884 28.9904 64.3376C27.3501 64.2284 26.7728 62.0704 28.144 61.1635L78.4301 27.9016Z" fill="#D8D8D8"/>
</g>
</mask>
<g mask="url(#mask2_3_1587)">
<g id="Group_19">
<path id="Vector_20" fill-rule="evenodd" clip-rule="evenodd" d="M79.8467 26.9648L75.9316 94.3563L56.1169 68.3562L79.8467 26.9648Z" fill="url(#paint2_linear_3_1587)"/>
<path id="Vector_21" fill-rule="evenodd" clip-rule="evenodd" d="M79.8467 26.9648L56.1169 68.3562L23.8086 64.0313L79.8467 26.9648Z" fill="url(#paint3_linear_3_1587)"/>
<g id="Group_20" opacity="0.7" filter="url(#filter10_f_3_1587)">
<path id="Vector_22" fill-rule="evenodd" clip-rule="evenodd" d="M70.6038 42.8608L63.4252 77.115L56.8385 68.3186L44.8802 64.3325L70.6038 42.8608Z" fill="url(#paint4_linear_3_1587)"/>
</g>
<g id="Group_21" filter="url(#filter11_i_3_1587)">
<g id="Vector_23" style="mix-blend-mode:soft-light">
<path fill-rule="evenodd" clip-rule="evenodd" d="M78.43 27.9016C79.0141 27.5152 79.7887 27.9611 79.7481 28.6602L76.2309 89.2045C76.1358 90.842 73.9915 91.4282 73.0729 90.0692C68.4736 83.265 59.595 70.5363 56.1169 68.356C52.6427 66.1782 37.2045 64.884 28.9904 64.3376C27.35 64.2284 26.7728 62.0704 28.1439 61.1635L78.43 27.9016Z" fill="white" fill-opacity="0.2"/>
</g>
</g>
<path id="Vector_24" d="M78.4773 27.9731C79.0025 27.6258 79.6991 28.0266 79.6626 28.6552L76.1454 89.1997C76.055 90.7549 74.0168 91.3126 73.1439 90.0213C70.844 86.6188 67.4736 81.7342 64.243 77.4272C62.6278 75.2739 61.0468 73.264 59.6516 71.6556C58.2586 70.0498 57.0441 68.8362 56.1624 68.2835C55.2794 67.73 53.6491 67.2384 51.5855 66.8025C49.518 66.3657 47.003 65.9822 44.3418 65.6501C39.0187 64.9857 33.1037 64.5255 28.9961 64.2521C27.4369 64.1484 26.889 62.0963 28.1912 61.2351L78.4773 27.9731Z" stroke="url(#paint5_linear_3_1587)" stroke-width="0.171387"/>
<path id="Vector_25" d="M35.9794 57.2593L77.8599 29.1973L69.3562 40.6241C66.1828 44.9584 60.5387 47.5486 54.6343 49.1808C48.3756 50.911 39.4525 58.3258 35.9794 57.2593Z" fill="url(#paint6_linear_3_1587)"/>
</g>
</g>
</g>
<g id="Group_22" style="mix-blend-mode:overlay" opacity="0.6">
<g id="Mask group_4">
<mask id="mask3_3_1587" style="mask-type:luminance" maskUnits="userSpaceOnUse" x="11" y="10" width="96" height="97">
<g id="Group_23" style="mix-blend-mode:overlay" opacity="0.6">
<path id="Vector_26" fill-rule="evenodd" clip-rule="evenodd" d="M92.9146 12.5542C88.1985 10.9687 85.1242 10.9688 74.1693 10.9688H43.8301C32.8753 10.9688 29.8015 10.9687 25.0854 12.5542C19.5094 14.5922 15.0922 19.0094 13.0542 24.5849C11.4687 29.3015 11.4688 32.3753 11.4688 43.3301V73.6693C11.4688 84.6242 11.4687 87.6985 13.0542 92.4146C15.0922 97.99 19.5094 102.408 25.0854 104.445C29.8015 106.031 32.8753 106.031 43.8301 106.031H74.1693C85.1242 106.031 88.1985 106.031 92.9146 104.445C98.49 102.408 102.908 97.99 104.945 92.4146C106.531 87.6985 106.531 84.6242 106.531 73.6693V43.3301C106.531 32.3753 106.531 29.3015 104.945 24.5849C102.908 19.0094 98.49 14.5922 92.9146 12.5542Z" fill="white"/>
</g>
</mask>
<g mask="url(#mask3_3_1587)">
<path id="Vector_27" d="M25.0854 12.5543L23.9203 9.08858L23.8751 9.10379L23.8302 9.12019L25.0854 12.5543ZM13.0542 24.5849L9.62016 23.3297L9.60373 23.3746L9.58848 23.4199L13.0542 24.5849ZM13.0542 92.4146L9.58852 93.5797L9.60375 93.6251L9.62016 93.67L13.0542 92.4146ZM25.0854 104.445L23.8305 107.88L23.8751 107.896L23.92 107.911L25.0854 104.445ZM92.9146 104.445L94.08 107.911L94.125 107.896L94.1696 107.879L92.9146 104.445ZM104.945 92.4146L108.379 93.6697L108.396 93.6251L108.411 93.5801L104.945 92.4146ZM104.945 24.5849L108.411 23.4196L108.396 23.3746L108.379 23.3299L104.945 24.5849ZM94.0797 9.08858C88.6838 7.27467 84.9571 7.31256 74.1693 7.31256V14.6251C85.2914 14.6251 87.7131 14.663 91.7496 16.0199L94.0797 9.08858ZM74.1693 7.31256H43.8301V14.6251H74.1693V7.31256ZM43.8301 7.31256C33.0423 7.31256 29.3162 7.27467 23.9203 9.08858L26.2504 16.0199C30.287 14.663 32.7081 14.6251 43.8301 14.6251V7.31256ZM23.8302 9.12019C17.2425 11.528 12.028 16.7425 9.62016 23.3297L16.4882 25.8402C18.1564 21.2766 21.7764 17.6565 26.3405 15.9883L23.8302 9.12019ZM9.58848 23.4199C7.77462 28.8162 7.8125 32.5424 7.8125 43.3302H15.125C15.125 32.2082 15.1629 29.787 16.5199 25.7499L9.58848 23.4199ZM7.8125 43.3302V73.6694H15.125V43.3302H7.8125ZM7.8125 73.6694C7.8125 84.4572 7.77461 88.1839 9.58852 93.5797L16.5199 91.2497C15.1629 87.2132 15.125 84.7915 15.125 73.6694H7.8125ZM9.62016 93.67C12.0279 100.257 17.2423 105.472 23.8305 107.88L26.3403 101.011C21.7765 99.3436 18.1565 95.7232 16.4882 91.1594L9.62016 93.67ZM23.92 107.911C29.3159 109.726 33.0425 109.688 43.8301 109.688V102.375C32.708 102.375 30.2871 102.337 26.2509 100.98L23.92 107.911ZM43.8301 109.688H74.1693V102.375H43.8301V109.688ZM74.1693 109.688C84.957 109.688 88.684 109.726 94.08 107.911L91.7492 100.98C87.7129 102.337 85.2914 102.375 74.1693 102.375V109.688ZM94.1696 107.879C100.757 105.472 105.972 100.257 108.379 93.6697L101.511 91.1596C99.8435 95.7231 96.223 99.3436 91.6596 101.011L94.1696 107.879ZM108.411 93.5801C110.225 88.184 110.188 84.457 110.188 73.6694H102.875C102.875 84.7915 102.837 87.2129 101.48 91.2492L108.411 93.5801ZM110.188 73.6694V43.3302H102.875V73.6694H110.188ZM110.188 43.3302C110.188 32.5424 110.225 28.8161 108.411 23.4196L101.48 25.7502C102.837 29.7872 102.875 32.2082 102.875 43.3302H110.188ZM108.379 23.3299C105.972 16.7424 100.757 11.528 94.1699 9.12022L91.6593 15.9883C96.2233 17.6565 99.8435 21.2767 101.511 25.8399L108.379 23.3299Z" fill="white"/>
</g>
</g>
</g>
</g>
</g>
</g>
</g>
<defs>
<filter id="filter0_f_3_1587" x="-21.4939" y="24.1662" width="160.988" height="157.472" filterUnits="userSpaceOnUse" color-interpolation-filters="sRGB">
<feFlood flood-opacity="0" result="BackgroundImageFix"/>
<feBlend mode="normal" in="SourceGraphic" in2="BackgroundImageFix" result="shape"/>
<feGaussianBlur stdDeviation="17.3954" result="effect1_foregroundBlur_3_1587"/>
</filter>
<filter id="filter1_f_3_1587" x="15.6963" y="74.2676" width="78.3809" height="53.0156" filterUnits="userSpaceOnUse" color-interpolation-filters="sRGB">
<feFlood flood-opacity="0" result="BackgroundImageFix"/>
<feBlend mode="normal" in="SourceGraphic" in2="BackgroundImageFix" result="shape"/>
<feGaussianBlur stdDeviation="9.14062" result="effect1_foregroundBlur_3_1587"/>
</filter>
<filter id="filter2_f_3_1587" x="8.26953" y="-22.0518" width="101.461" height="66.041" filterUnits="userSpaceOnUse" color-interpolation-filters="sRGB">
<feFlood flood-opacity="0" result="BackgroundImageFix"/>
<feBlend mode="normal" in="SourceGraphic" in2="BackgroundImageFix" result="shape"/>
<feGaussianBlur stdDeviation="9.14062" result="effect1_foregroundBlur_3_1587"/>
</filter>
<filter id="filter3_f_3_1587" x="-23.4941" y="-37.7051" width="164.988" height="97.3477" filterUnits="userSpaceOnUse" color-interpolation-filters="sRGB">
<feFlood flood-opacity="0" result="BackgroundImageFix"/>
<feBlend mode="normal" in="SourceGraphic" in2="BackgroundImageFix" result="shape"/>
<feGaussianBlur stdDeviation="10.2832" result="effect1_foregroundBlur_3_1587"/>
</filter>
<filter id="filter4_f_3_1587" x="18.6244" y="24.5688" width="79.2814" height="89.5591" filterUnits="userSpaceOnUse" color-interpolation-filters="sRGB">
<feFlood flood-opacity="0" result="BackgroundImageFix"/>
<feBlend mode="normal" in="SourceGraphic" in2="BackgroundImageFix" result="shape"/>
<feGaussianBlur stdDeviation="6.59033" result="effect1_foregroundBlur_3_1587"/>
</filter>
<filter id="filter5_f_3_1587" x="23.7237" y="39.9831" width="56.7152" height="65.2691" filterUnits="userSpaceOnUse" color-interpolation-filters="sRGB">
<feFlood flood-opacity="0" result="BackgroundImageFix"/>
<feBlend mode="normal" in="SourceGraphic" in2="BackgroundImageFix" result="shape"/>
<feGaussianBlur stdDeviation="3.18887" result="effect1_foregroundBlur_3_1587"/>
</filter>
<filter id="filter6_i_3_1587" x="26.6065" y="27.8115" width="53.0163" height="65.1597" filterUnits="userSpaceOnUse" color-interpolation-filters="sRGB">
<feFlood flood-opacity="0" result="BackgroundImageFix"/>
<feBlend mode="normal" in="SourceGraphic" in2="BackgroundImageFix" result="shape"/>
<feColorMatrix in="SourceAlpha" type="matrix" values="0 0 0 0 0 0 0 0 0 0 0 0 0 0 0 0 0 0 127 0" result="hardAlpha"/>
<feOffset/>
<feGaussianBlur stdDeviation="0.685547"/>
<feComposite in2="hardAlpha" operator="arithmetic" k2="-1" k3="1"/>
<feColorMatrix type="matrix" values="0 0 0 0 0.309804 0 0 0 0 0.666667 0 0 0 0 1 0 0 0 1 0"/>
<feBlend mode="soft-light" in2="shape" result="effect1_innerShadow_3_1587"/>
</filter>
<filter id="filter7_f_3_1587" x="71.9111" y="88.6641" width="13.1396" height="13.1396" filterUnits="userSpaceOnUse" color-interpolation-filters="sRGB">
<feFlood flood-opacity="0" result="BackgroundImageFix"/>
<feBlend mode="normal" in="SourceGraphic" in2="BackgroundImageFix" result="shape"/>
<feGaussianBlur stdDeviation="0.685547" result="effect1_foregroundBlur_3_1587"/>
</filter>
<filter id="filter8_f_3_1587" x="56.8295" y="68.6284" width="15.0495" height="18.9951" filterUnits="userSpaceOnUse" color-interpolation-filters="sRGB">
<feFlood flood-opacity="0" result="BackgroundImageFix"/>
<feBlend mode="normal" in="SourceGraphic" in2="BackgroundImageFix" result="shape"/>
<feGaussianBlur stdDeviation="0.685547" result="effect1_foregroundBlur_3_1587"/>
</filter>
<filter id="filter9_f_3_1587" x="28.7613" y="62.0234" width="26.3632" height="6.64209" filterUnits="userSpaceOnUse" color-interpolation-filters="sRGB">
<feFlood flood-opacity="0" result="BackgroundImageFix"/>
<feBlend mode="normal" in="SourceGraphic" in2="BackgroundImageFix" result="shape"/>
<feGaussianBlur stdDeviation="0.685547" result="effect1_foregroundBlur_3_1587"/>
</filter>
<filter id="filter10_f_3_1587" x="38.0773" y="36.0579" width="39.3294" height="47.8603" filterUnits="userSpaceOnUse" color-interpolation-filters="sRGB">
<feFlood flood-opacity="0" result="BackgroundImageFix"/>
<feBlend mode="normal" in="SourceGraphic" in2="BackgroundImageFix" result="shape"/>
<feGaussianBlur stdDeviation="3.40147" result="effect1_foregroundBlur_3_1587"/>
</filter>
<filter id="filter11_i_3_1587" x="27.3761" y="27.7588" width="52.3735" height="63.0659" filterUnits="userSpaceOnUse" color-interpolation-filters="sRGB">
<feFlood flood-opacity="0" result="BackgroundImageFix"/>
<feBlend mode="normal" in="SourceGraphic" in2="BackgroundImageFix" result="shape"/>
<feColorMatrix in="SourceAlpha" type="matrix" values="0 0 0 0 0 0 0 0 0 0 0 0 0 0 0 0 0 0 127 0" result="hardAlpha"/>
<feOffset/>
<feGaussianBlur stdDeviation="3.65625"/>
<feComposite in2="hardAlpha" operator="arithmetic" k2="-1" k3="1"/>
<feColorMatrix type="matrix" values="0 0 0 0 0.233594 0 0 0 0 0.253455 0 0 0 0 0.308073 0 0 0 0.25 0"/>
<feBlend mode="soft-light" in2="shape" result="effect1_innerShadow_3_1587"/>
</filter>
<radialGradient id="paint0_radial_3_1587" cx="0" cy="0" r="1" gradientUnits="userSpaceOnUse" gradientTransform="translate(59 58.5) rotate(180) scale(48.3311)">
<stop/>
<stop offset="1" stop-opacity="0"/>
</radialGradient>
<linearGradient id="paint1_linear_3_1587" x1="27.6362" y1="61.3564" x2="76.5957" y2="89.1782" gradientUnits="userSpaceOnUse">
<stop stop-color="#1A1A1A"/>
<stop offset="0.0341194" stop-color="#BFBFBF"/>
<stop offset="0.0793846" stop-color="#808080"/>
<stop offset="0.498316" stop-color="#4D4D4D"/>
<stop offset="0.50436" stop-color="#999999"/>
<stop offset="0.955274" stop-color="#E6E6E6"/>
<stop offset="1" stop-color="#333333"/>
</linearGradient>
<linearGradient id="paint2_linear_3_1587" x1="79.8263" y1="26.9648" x2="64.9451" y2="79.5811" gradientUnits="userSpaceOnUse">
<stop stop-color="#A7AEB6"/>
<stop offset="1" stop-color="#A4B1BF"/>
</linearGradient>
<linearGradient id="paint3_linear_3_1587" x1="79.8265" y1="26.9648" x2="39.6467" y2="65.9754" gradientUnits="userSpaceOnUse">
<stop stop-color="#F7FAFB"/>
<stop offset="0.542046" stop-color="#ECEEED"/>
<stop offset="1" stop-color="#DEDFE2"/>
</linearGradient>
<linearGradient id="paint4_linear_3_1587" x1="47.2994" y1="57.8517" x2="70.2123" y2="68.0735" gradientUnits="userSpaceOnUse">
<stop stop-color="#BAB8C2"/>
<stop offset="1" stop-color="#E5E5E7"/>
</linearGradient>
<linearGradient id="paint5_linear_3_1587" x1="78.4238" y1="28.7928" x2="50.8877" y2="77.8094" gradientUnits="userSpaceOnUse">
<stop stop-color="#13111D"/>
<stop offset="1" stop-color="#575562" stop-opacity="0.21"/>
</linearGradient>
<linearGradient id="paint6_linear_3_1587" x1="79.0823" y1="27.0181" x2="42.5166" y2="57.8439" gradientUnits="userSpaceOnUse">
<stop stop-color="white"/>
<stop offset="0.954301" stop-opacity="0"/>
</linearGradient>
</defs>
</svg>
