<svg width="32" height="32" viewBox="0 0 32 32" fill="none" xmlns="http://www.w3.org/2000/svg">
<g id="SVG">
<path id="Vector" d="M16.001 22.5037C16.691 22.5037 17.3527 22.2296 17.8406 21.7417C18.3285 21.2537 18.6026 20.592 18.6026 19.902C18.6026 19.2121 18.3285 18.5503 17.8406 18.0624C17.3527 17.5745 16.691 17.3004 16.001 17.3004C15.311 17.3004 14.6493 17.5745 14.1614 18.0624C13.6735 18.5503 13.3994 19.2121 13.3994 19.902C13.3994 20.592 13.6735 21.2537 14.1614 21.7417C14.6493 22.2296 15.311 22.5037 16.001 22.5037ZM23.8059 10.7964C24.4959 10.7964 25.1576 11.0705 25.6455 11.5584C26.1334 12.0462 26.4075 12.708 26.4075 13.398V26.4061C26.4075 27.0961 26.1334 27.7579 25.6455 28.2457C25.1576 28.7336 24.4959 29.0077 23.8059 29.0077H8.19614C7.50615 29.0077 6.84441 28.7336 6.35651 28.2457C5.86861 27.7579 5.59451 27.0961 5.59451 26.4061V13.398C5.59451 12.708 5.86861 12.0462 6.35651 11.5584C6.84441 11.0705 7.50615 10.7964 8.19614 10.7964H9.49698V8.19474C9.49698 6.46975 10.1822 4.81542 11.4019 3.59567C12.6217 2.37592 14.2761 1.69067 16.001 1.69067C16.8552 1.69067 17.7009 1.8589 18.49 2.18576C19.2791 2.51262 19.9961 2.99171 20.6001 3.59567C21.2041 4.19962 21.6831 4.91663 22.01 5.70574C22.3369 6.49485 22.5051 7.34061 22.5051 8.19474V10.7964H23.8059ZM16.001 4.2923C14.966 4.2923 13.9734 4.70344 13.2416 5.4353C12.5097 6.16715 12.0986 7.15975 12.0986 8.19474V10.7964H19.9035V8.19474C19.9035 7.15975 19.4923 6.16715 18.7604 5.4353C18.0286 4.70344 17.036 4.2923 16.001 4.2923Z" fill="white" fill-opacity="0.7"/>
</g>
</svg>
