<svg width="21" height="21" viewBox="0 0 21 21" fill="none" xmlns="http://www.w3.org/2000/svg">
<g id="logo.svg">
<g id="Clip path group">
<mask id="mask0_3_1748" style="mask-type:luminance" maskUnits="userSpaceOnUse" x="2" y="1" width="17" height="19">
<g id="a">
<path id="Vector" d="M18.0596 1.40887H2.65216V19.1867H18.0596V1.40887Z" fill="white"/>
</g>
</mask>
<g mask="url(#mask0_3_1748)">
<g id="Group">
<g id="Mask group">
<mask id="mask1_3_1748" style="mask-type:alpha" maskUnits="userSpaceOnUse" x="2" y="1" width="16" height="19">
<g id="Group_2">
<path id="Vector_2" d="M16.9503 1.56604C17.3586 1.29404 17.9017 1.60758 17.8702 2.09715L16.801 18.765C16.7747 19.1757 16.2525 19.3331 16.0036 19.0055L11.3573 12.8893C11.237 12.7308 11.058 12.6275 10.8606 12.6025L3.24068 11.6368C2.83243 11.585 2.70768 11.0541 3.05015 10.826L16.9503 1.56604Z" fill="#D9D9D9"/>
</g>
</mask>
<g mask="url(#mask1_3_1748)">
<g id="Group_3">
<path id="Vector_3" d="M1.91418 11.4883L17.9482 0.901764L11.1212 12.7265L1.91418 11.4883Z" fill="url(#paint0_linear_3_1748)"/>
<path id="Vector_4" d="M16.7976 20.0809L17.9488 0.901764L11.1218 12.7265L16.7976 20.0809Z" fill="url(#paint1_linear_3_1748)"/>
</g>
</g>
</g>
</g>
</g>
</g>
</g>
<defs>
<linearGradient id="paint0_linear_3_1748" x1="9.93117" y1="0.901764" x2="9.93117" y2="12.7265" gradientUnits="userSpaceOnUse">
<stop stop-color="white"/>
<stop offset="1" stop-color="white" stop-opacity="0.4"/>
</linearGradient>
<linearGradient id="paint1_linear_3_1748" x1="14.5353" y1="0.901764" x2="14.5353" y2="20.0809" gradientUnits="userSpaceOnUse">
<stop stop-color="white" stop-opacity="0.4"/>
<stop offset="1" stop-color="white"/>
</linearGradient>
</defs>
</svg>
