<svg width="56" height="56" viewBox="0 0 56 56" fill="none" xmlns="http://www.w3.org/2000/svg">
<g id="SVG" clip-path="url(#clip0_3_1125)">
<path id="Vector" d="M52.4422 15.2238C52.6479 15.1163 52.7277 14.8624 52.6172 14.6584C50.1775 10.157 46.5488 6.40801 42.1231 3.82277C37.6974 1.23754 32.6495 -0.0819892 27.5302 0.00394467C27.2982 0.00783782 27.1162 0.202089 27.1236 0.433931C27.1309 0.665774 27.3249 0.847403 27.5569 0.843617C32.5183 0.762635 37.4102 2.04253 41.6994 4.5481C45.9887 7.05366 49.5063 10.6861 51.8726 15.0476C51.9832 15.2515 52.2367 15.3312 52.4422 15.2238Z" fill="url(#paint0_linear_3_1125)"/>
<path id="Vector_2" d="M0.63786 31.4597C0.407732 31.4888 0.244446 31.699 0.276991 31.9286C0.995361 36.9981 3.09058 41.7764 6.33821 45.7417C9.5858 49.7068 13.8577 52.7025 18.6862 54.4056C18.905 54.4827 19.1433 54.364 19.2171 54.1441C19.291 53.9243 19.1725 53.6865 18.9537 53.6092C14.275 51.9564 10.1356 49.0524 6.98806 45.2094C3.84053 41.3664 1.80894 36.736 1.11045 31.8233C1.0778 31.5936 0.867987 31.4306 0.63786 31.4597Z" fill="url(#paint1_linear_3_1125)"/>
</g>
<defs>
<linearGradient id="paint0_linear_3_1125" x1="53.8125" y1="21.4375" x2="27.8937" y2="22.2671" gradientUnits="userSpaceOnUse">
<stop stop-color="#4FAAFF"/>
<stop offset="1" stop-color="#4FAAFF" stop-opacity="0"/>
</linearGradient>
<linearGradient id="paint1_linear_3_1125" x1="-0.874996" y1="23.625" x2="30.625" y2="56" gradientUnits="userSpaceOnUse">
<stop stop-color="#4FAAFF"/>
<stop offset="1" stop-color="#4FAAFF" stop-opacity="0"/>
</linearGradient>
<clipPath id="clip0_3_1125">
<rect width="56" height="56" fill="white"/>
</clipPath>
</defs>
</svg>
