<svg width="21" height="17" viewBox="0 0 21 17" fill="none" xmlns="http://www.w3.org/2000/svg">
<g id="Link &#226;&#134;&#146; SVG" clip-path="url(#clip0_3_1281)">
<path id="Vector" d="M20.3008 2.46378C19.7847 3.15213 19.1609 3.75258 18.4535 4.24195C18.4535 4.42177 18.4535 4.60158 18.4535 4.79139C18.4592 8.0568 17.1549 11.1879 14.8329 13.4828C12.511 15.7777 9.36566 17.0443 6.1021 16.9988C4.21537 17.0051 2.3528 16.5743 0.660288 15.7401C0.569029 15.7003 0.510167 15.61 0.510514 15.5103V15.4005C0.510514 15.257 0.626745 15.1407 0.770123 15.1407C2.62474 15.0796 4.41319 14.4366 5.88243 13.3026C4.20375 13.2688 2.69337 12.2744 1.99828 10.7453C1.96317 10.6617 1.9741 10.5659 2.02712 10.4925C2.08015 10.419 2.1676 10.3785 2.25789 10.3856C2.76808 10.4369 3.28336 10.3894 3.7756 10.2458C1.92248 9.86109 0.530061 8.32265 0.330784 6.43969C0.323701 6.34936 0.364181 6.26187 0.4376 6.20882C0.511018 6.15577 0.606762 6.14483 0.690243 6.17996C1.18754 6.39939 1.72438 6.51496 2.26787 6.51961C0.644093 5.45384 -0.0572714 3.42672 0.560439 1.58469C0.624201 1.4057 0.777389 1.27347 0.96371 1.2366C1.15003 1.19972 1.342 1.26365 1.46907 1.40487C3.66026 3.73695 6.67098 5.12662 9.86644 5.28088C9.78459 4.95427 9.74433 4.61862 9.74662 4.28191C9.77651 2.51636 10.8689 0.943567 12.5125 0.299861C14.156 -0.343846 16.0253 0.0689269 17.2453 1.34494C18.077 1.18651 18.881 0.907164 19.6318 0.515789C19.6868 0.481454 19.7565 0.481454 19.8115 0.515789C19.8458 0.57081 19.8458 0.640583 19.8115 0.695604C19.4478 1.52835 18.8335 2.2268 18.0541 2.69355C18.7366 2.6144 19.4071 2.45341 20.0511 2.21404C20.1054 2.17713 20.1766 2.17713 20.2309 2.21404C20.2763 2.23482 20.3102 2.27457 20.3237 2.32269C20.3372 2.37081 20.3288 2.42242 20.3008 2.46378Z" fill="white" fill-opacity="0.32"/>
</g>
<defs>
<clipPath id="clip0_3_1281">
<rect width="20" height="17" fill="white" transform="translate(0.329987)"/>
</clipPath>
</defs>
</svg>
