<svg width="32" height="32" viewBox="0 0 32 32" fill="none" xmlns="http://www.w3.org/2000/svg">
<g id="SVG" clip-path="url(#clip0_3_1218)">
<g id="Mask group">
<mask id="mask0_3_1218" style="mask-type:luminance" maskUnits="userSpaceOnUse" x="0" y="0" width="32" height="32">
<g id="Group">
<path id="Vector" d="M0.390259 0.390137H31.6098V31.6096H0.390259V0.390137Z" fill="white"/>
</g>
</mask>
<g mask="url(#mask0_3_1218)">
<g id="Group_2">
<path id="Vector_2" d="M0.686943 11.2781C0.686943 11.2781 -0.0727321 10.7227 0.83914 9.98384L2.96597 8.06124C2.96597 8.06124 3.57345 7.41474 4.21735 7.97799L23.8349 22.992V30.1907C23.8349 30.1907 23.8258 31.3224 22.391 31.1975L0.685642 11.2769L0.686943 11.2781Z" fill="white" fill-opacity="0.7"/>
<path id="Vector_3" d="M5.7431 15.9176L0.68554 20.5642C0.68554 20.5642 0.165215 20.9544 0.68554 21.6529L3.03351 23.8122C3.03351 23.8122 3.59156 24.4171 4.41497 23.7277L9.77563 19.6198L5.7431 15.9176ZM14.6199 15.9554L23.8946 8.79831L23.8335 1.63732C23.8335 1.63732 23.4367 0.0737433 22.1165 0.888052L9.77563 12.2403L14.6199 15.9554Z" fill="white" fill-opacity="0.7"/>
<path id="Vector_4" d="M22.3908 31.2064C22.9294 31.7632 23.5823 31.5811 23.5823 31.5811L30.8096 27.9817C31.7345 27.3444 31.6045 26.5534 31.6045 26.5534V5.05752C31.6045 4.11313 30.6484 3.78662 30.6484 3.78662L24.3836 0.733614C23.0152 -0.12102 22.1189 0.888411 22.1189 0.888411C22.1189 0.888411 23.2714 0.0493866 23.836 1.63768V30.0605C23.836 30.2556 23.7944 30.4468 23.7124 30.6198C23.5472 30.9567 23.1895 31.2702 22.331 31.1401L22.3908 31.2064Z" fill="white" fill-opacity="0.7"/>
</g>
</g>
</g>
</g>
<defs>
<clipPath id="clip0_3_1218">
<rect width="32" height="32" fill="white"/>
</clipPath>
</defs>
</svg>
